<svg width="24" height="24" viewBox="0 0 24 24" fill="none" xmlns="http://www.w3.org/2000/svg">
<path d="M10.292 2.39577C10.416 2.51977 10.498 2.64977 10.55 2.74577C10.629 2.89077 10.688 3.04577 10.735 3.18577C10.825 3.45377 10.917 3.81077 11.022 4.21777L14.702 18.4578L16.31 12.3998L16.323 12.3498L16.326 12.3388C16.37 12.1688 16.443 11.8848 16.609 11.6458C16.7599 11.4259 16.9666 11.2502 17.208 11.1368C17.399 11.0468 17.577 11.0198 17.708 11.0098C17.813 10.9998 17.928 11.0008 18.016 11.0008H21C21.2652 11.0008 21.5196 11.1061 21.7071 11.2937C21.8946 11.4812 22 11.7356 22 12.0008C22 12.266 21.8946 12.5203 21.7071 12.7079C21.5196 12.8954 21.2652 13.0008 21 13.0008H18.22L16.416 19.7958C16.308 20.2018 16.214 20.5578 16.122 20.8258C16.0711 20.9772 16.0083 21.1243 15.934 21.2658C15.8259 21.4674 15.67 21.6394 15.48 21.7668C15.2447 21.9199 14.9698 22.0009 14.6891 21.9998C14.4084 21.9988 14.1341 21.9157 13.9 21.7608C13.711 21.6317 13.5565 21.4584 13.45 21.2558C13.3767 21.1139 13.3148 20.9665 13.265 20.8148C13.175 20.5468 13.083 20.1898 12.978 19.7828L9.298 5.54277L7.69 11.5998L7.677 11.6498L7.674 11.6608C7.63 11.8308 7.556 12.1148 7.391 12.3538C7.24013 12.5737 7.03336 12.7494 6.792 12.8628C6.601 12.9528 6.423 12.9798 6.292 12.9898C6.187 12.9998 6.072 12.9988 5.984 12.9988H3C2.73478 12.9988 2.48043 12.8934 2.29289 12.7059C2.10536 12.5183 2 12.264 2 11.9988C2 11.7336 2.10536 11.4792 2.29289 11.2917C2.48043 11.1041 2.73478 10.9988 3 10.9988H5.78L7.584 4.20277C7.692 3.79777 7.786 3.44077 7.878 3.17477C7.926 3.03477 7.986 2.87977 8.066 2.73477C8.174 2.53282 8.32989 2.36045 8.52 2.23277C8.79052 2.05647 9.11259 1.97656 9.43414 2.00596C9.75569 2.03536 10.0579 2.17334 10.292 2.39577Z" fill="black"/>
</svg>
