<svg width="24" height="24" viewBox="0 0 24 24" fill="none" xmlns="http://www.w3.org/2000/svg">
<path d="M9.142 21.5834C7.48808 21.0894 5.99017 20.1758 4.794 18.9314C5.17884 18.4749 5.41874 17.9141 5.483 17.3205C5.54726 16.7269 5.43296 16.1277 5.15473 15.5995C4.87649 15.0713 4.44698 14.6381 3.92115 14.3553C3.39532 14.0726 2.79709 13.9532 2.203 14.0124C2.06736 13.3495 1.99934 12.6745 2 11.9979C2 10.9529 2.16 9.94488 2.458 8.99788H2.5C3.00988 8.99804 3.51139 8.86825 3.95717 8.62075C4.40295 8.37325 4.7783 8.01622 5.04777 7.58337C5.31724 7.15052 5.47194 6.65613 5.49726 6.14688C5.52259 5.63763 5.4177 5.13033 5.1925 4.67288C6.36517 3.5818 7.78277 2.78837 9.326 2.35938C9.57719 2.85258 9.95993 3.26667 10.4319 3.55585C10.9038 3.84503 11.4465 3.99801 12 3.99787C12.5535 3.99801 13.0962 3.84503 13.5682 3.55585C14.0401 3.26667 14.4228 2.85258 14.674 2.35938C16.2172 2.78837 17.6348 3.5818 18.8075 4.67288C18.5807 5.13353 18.4759 5.6447 18.5031 6.15745C18.5304 6.67021 18.6888 7.16738 18.9632 7.60139C19.2376 8.0354 19.6188 8.39171 20.0703 8.63622C20.5219 8.88073 21.0286 9.00525 21.542 8.99788C21.8464 9.96875 22.0008 10.9804 22 11.9979C22 12.6879 21.93 13.3619 21.797 14.0129C21.2029 13.9537 20.6047 14.0731 20.0789 14.3558C19.553 14.6386 19.1235 15.0718 18.8453 15.6C18.5671 16.1282 18.4528 16.7274 18.517 17.321C18.5813 17.9146 18.8212 18.4754 19.206 18.9319C18.0098 20.1761 16.5119 21.0896 14.858 21.5834C14.6638 20.978 14.2824 20.45 13.7687 20.0753C13.2551 19.7007 12.6358 19.4988 12 19.4988C11.3643 19.4988 10.7449 19.7007 10.2313 20.0753C9.71765 20.45 9.33623 20.978 9.142 21.5834Z" stroke="black" stroke-width="2" stroke-linejoin="round"/>
<path d="M12 15.5C12.4596 15.5 12.9148 15.4095 13.3394 15.2336C13.764 15.0577 14.1499 14.7999 14.4749 14.4749C14.7999 14.1499 15.0577 13.764 15.2336 13.3394C15.4095 12.9148 15.5 12.4596 15.5 12C15.5 11.5404 15.4095 11.0852 15.2336 10.6606C15.0577 10.236 14.7999 9.85013 14.4749 9.52513C14.1499 9.20012 13.764 8.94231 13.3394 8.76642C12.9148 8.59053 12.4596 8.5 12 8.5C11.0717 8.5 10.1815 8.86875 9.52513 9.52513C8.86875 10.1815 8.5 11.0717 8.5 12C8.5 12.9283 8.86875 13.8185 9.52513 14.4749C10.1815 15.1313 11.0717 15.5 12 15.5Z" stroke="black" stroke-width="2" stroke-linejoin="round"/>
</svg>
